C:\GBW_MyPrograms\KinderuniversiteitApp\Resultaten\Ellis_v10102025\Aarde\Aarde_v3.mot
version=1
nRows=18
nColumns=29
inDegrees=yes
endheader
                time	         pelvis_tilt	           pelvis_tx	           pelvis_ty	       hip_flexion_l	       hip_flexion_r	        knee_angle_l	        knee_angle_r	       ankle_angle_l	       ankle_angle_r	    lumbar_extension	hamstrings_r/activation	bifemsh_r/activation	glut_max_r/activation	iliopsoas_r/activation	rect_fem_r/activation	  vasti_r/activation	gastroc_r/activation	 soleus_r/activation	tib_ant_r/activation	hamstrings_l/activation	bifemsh_l/activation	glut_max_l/activation	iliopsoas_l/activation	rect_fem_l/activation	  vasti_l/activation	gastroc_l/activation	 soleus_l/activation	tib_ant_l/activation	
          0.47133362	         -8.10020643	          0.62687371	          0.89223109	         30.99291657	         -9.37956917	         -8.28423482	         -9.25988827	          9.26797010	          5.88319958	          1.71893494	          0.05000000	          0.16312207	          0.05000000	          0.64968878	          0.05000000	          0.05000000	          0.18594531	          0.31969646	          0.05000000	          0.26825802	          0.05000000	          0.05672278	          0.05000000	          0.07746316	          0.06694329	          0.05000000	          0.05319795	          0.22332152	
          0.48076029	         -8.11595237	          0.64213157	          0.89174909	         30.15691077	         -8.80839819	         -7.86694269	        -12.00510587	          9.10175483	          5.16494747	          2.05815710	          0.05000000	          0.14097354	          0.05000000	          0.56732105	          0.05000000	          0.05000000	          0.16069788	          0.27628845	          0.05000000	          0.24327955	          0.05000000	          0.06140006	          0.05000000	          0.06694530	          0.08289384	          0.05000000	          0.05000000	          0.24197744	
          0.49018696	         -8.12789011	          0.65754789	          0.89120782	         29.29538051	         -8.03493939	         -7.96082375	        -15.10297636	          8.84006097	          4.23015667	          2.41504949	          0.05394000	          0.12183232	          0.05000000	          0.49029086	          0.05000000	          0.05000000	          0.13887851	          0.23877433	          0.05000000	          0.21428629	          0.06042623	          0.10813152	          0.05000000	          0.05785555	          0.07554939	          0.06329840	          0.05785558	          0.23046973	
          0.49961363	         -8.13861662	          0.67291652	          0.89071629	         28.42433321	         -7.04056577	         -8.19248831	        -18.52399037	          8.54347555	          2.94379787	          2.76641022	          0.05000000	          0.10529007	          0.06142330	          0.42371974	          0.05000000	          0.05000000	          0.12002175	          0.20635383	          0.05000000	          0.18519075	          0.06694526	          0.15361642	          0.05000000	          0.05000000	          0.11240849	          0.05470382	          0.05000001	          0.28592183	
          0.50904030	         -8.15276658	          0.68793301	          0.89049627	         27.62270163	         -5.80759477	         -8.47263311	        -22.21997930	          8.14883187	          1.25620891	          3.07874405	          0.05000000	          0.09099391	          0.05308332	          0.36618757	          0.06719798	          0.05000000	          0.10372533	          0.17833535	          0.25420003	          0.16004577	          0.05785552	          0.21108335	          0.05000000	          0.05000000	          0.19103598	          0.05000000	          0.05000000	          0.30698899	
          0.51846698	         -8.17294556	          0.70236193	          0.89061522	         26.92044077	         -4.38471501	         -8.84926362	        -26.04952715	          7.80342461	         -0.20897400	          3.32523766	          0.05000000	          0.07863887	          0.05000000	          0.31646705	          0.16619527	          0.05000000	          0.08964163	          0.15412118	          0.22862955	          0.13831495	          0.05000000	          0.22639600	          0.05000000	          0.05000000	          0.24097117	          0.05000000	          0.05000000	          0.33145153	
          0.52789365	         -8.20071651	          0.71617070	          0.89113601	         26.28484055	         -2.88922152	         -9.26477518	        -29.67310318	          7.54622728	         -0.54701922	          3.50412107	          0.05000000	          0.08386617	          0.05000000	          0.27349753	          0.23547971	          0.05000000	          0.07747020	          0.13319479	          0.29998648	          0.12472269	          0.05000001	          0.22007919	          0.05000000	          0.05000000	          0.26566709	          0.05000000	          0.05000000	          0.33229347	
          0.53732032	         -8.23454116	          0.72946807	          0.89214086	         25.66257889	         -1.39470269	         -9.64383388	        -32.87927032	          7.40536116	         -0.44789627	          3.62818171	          0.05356828	          0.12982762	          0.05000000	          0.23636235	          0.30685147	          0.05000000	          0.06695142	          0.11510976	          0.29972985	          0.11451579	          0.05000002	          0.21383543	          0.05000000	          0.05000000	          0.27026974	          0.05000000	          0.05000000	          0.32860991	
          0.54674699	         -8.27308380	          0.74237393	          0.89359269	         25.00751555	          0.06043490	         -9.91736796	        -35.58512530	          7.35889397	         -0.15435654	          3.71147826	          0.06880589	          0.17537674	          0.05000000	          0.20426935	          0.35831832	          0.05000000	          0.07109853	          0.09948029	          0.29311657	          0.10946922	          0.05000003	          0.19999031	          0.05000000	          0.05000000	          0.26107325	          0.05000000	          0.05000000	          0.31825863	
          0.55617367	         -8.31428826	          0.75498485	          0.89539588	         24.29389411	          1.46353115	        -10.05159988	        -37.79283092	          7.38011904	          0.26572784	          3.76387345	          0.07706317	          0.22606217	          0.05000000	          0.17653390	          0.39216403	          0.05000000	          0.07211669	          0.08597297	          0.27929535	          0.10697858	          0.05000004	          0.18402182	          0.05000000	          0.05000000	          0.24503758	          0.05000000	          0.05000000	          0.30617872	
          0.56560034	         -8.35618893	          0.76736616	          0.89743800	         23.51546090	          2.81927786	        -10.04345368	        -39.55212679	          7.43879549	          0.76751012	          3.79114349	          0.07746314	          0.28079161	          0.05000000	          0.15715875	          0.40851296	          0.05000000	          0.07023555	          0.07429966	          0.26385558	          0.10597499	          0.05000003	          0.16981479	          0.05000000	          0.05000000	          0.22695267	          0.05000000	          0.05000000	          0.29340674	
          0.57502701	         -8.39707571	          0.77955870	          0.89961132	         22.67668801	          4.14090971	         -9.90688841	        -40.93326412	          7.51410703	          1.32792209	          3.79614601	          0.06694531	          0.33813208	          0.05000000	          0.14344923	          0.41022551	          0.05000000	          0.06653291	          0.06421134	          0.24699249	          0.10576184	          0.05000002	          0.16054829	          0.05000000	          0.05000000	          0.20949954	          0.05000000	          0.05000000	          0.28165828	
          0.58445368	         -8.43535298	          0.79158748	          0.90182256	         21.78493219	          5.44494517	         -9.65948700	        -42.01069525	          7.59095348	          1.93281004	          3.77983703	          0.05785556	          0.39792720	          0.05000000	          0.13488294	          0.40194964	          0.05000000	          0.06287749	          0.05549280	          0.23042411	          0.10420151	          0.05000001	          0.15284819	          0.05000000	          0.05000000	          0.19405330	          0.05000000	          0.05000000	          0.27130830	
          0.59388036	         -8.46942126	          0.80346617	          0.90399451	         20.84823645	          6.75016416	         -9.31944709	        -42.86102012	          7.66116323	          2.55611770	          3.74173670	          0.05000001	          0.45662530	          0.05000000	          0.12940723	          0.38654071	          0.05000000	          0.05785550	          0.05000000	          0.21697414	          0.10154973	          0.05000000	          0.14587112	          0.05000000	          0.05000000	          0.18140023	          0.05000000	          0.05000000	          0.26258942	
          0.60330703	         -8.49792379	          0.81520178	          0.90606456	         19.87439864	          8.07590348	         -8.90366706	        -43.56021834	          7.72047793	          3.15880918	          3.68085473	          0.05000000	          0.51009178	          0.05000000	          0.12752672	          0.36756359	          0.05000000	          0.05000001	          0.05000000	          0.21017523	          0.09694427	          0.05000000	          0.13549129	          0.05000000	          0.05000000	          0.17109681	          0.05000000	          0.05000000	          0.25504989	
          0.61273370	         -8.51976792	          0.82679787	          0.90798239	         18.87178580	          9.43991396	         -8.42957767	        -44.18087477	          7.76768418	          3.71184450	          3.59612460	          0.05000000	          0.55139946	          0.05000000	          0.12643560	          0.34686868	          0.05000000	          0.05000000	          0.05000000	          0.21024541	          0.09146247	          0.05000000	          0.12570911	          0.05000000	          0.05000000	          0.16293156	          0.05000000	          0.05000000	          0.24861993	
          0.62216037	         -8.53420622	          0.83825906	          0.90970912	         17.84740615	         10.85568787	         -7.91185551	        -44.78477255	          7.80319206	          4.21759803	          3.48708207	          0.05000000	          0.57428407	          0.05000000	          0.12612041	          0.32658436	          0.05000000	          0.05000000	          0.05000000	          0.21026866	          0.08514921	          0.05000000	          0.11607742	          0.05000000	          0.05000000	          0.15610538	          0.05000000	          0.05000000	          0.24278627	
          0.63158704	         -8.54081626	          0.84959510	          0.91121800	         16.80636751	         12.32884239	         -7.36213054	        -45.41167487	          7.82962827	          4.70238147	          3.35434074	          0.05000000	          0.57507712	          0.05000000	          0.12634370	          0.30773036	          0.05000000	          0.05000000	          0.05000000	          0.21171180	          0.07829311	          0.05000000	          0.10666323	          0.05000000	          0.05000000	          0.14979392	          0.05000000	          0.05000000	          0.23696274	
